# xmcd
#
# Track frame offsets:
#	150
#	13663
#	29864
#	40526
#	53587
#	65656
#	80190
#	94491
#	108639
#	126402
#	139572
#	155142
#	169721
#	181757
#	194218
#	204338
#	214556
#	229856
#
# Disc length: 3252 seconds
#
# Revision: 0
# Processed by: cddbd v1.4PL0 Copyright (c) Steve Scherf et al.
# Submitted via: audiograbber 1.80.04
#
DISCID=0b0cb212
DTITLE=George Strait - Strait Out Of The Box Disc 4
DYEAR=1995
DGENRE=Country
TTITLE0=Wonderland Of Love
TTITLE1=I Cross My Heart
TTITLE2=Heartland
TTITLE3=When Did You Stop Loving Me
TTITLE4=Overnight Male
TTITLE5=The King Of Broken Hearts
TTITLE6=Where The Sidewalk ends
TTITLE7=Easy Come, Easy Go
TTITLE8=I'd Like To Have That One Back
TTITLE9=Lovebug
TTITLE10=The Man In Love With You
TTITLE11=Just Look At Me
TTITLE12=Stay Out Of My Arms
TTITLE13=Big Ball's In Cowtown (w/ Asleep At The Wheel)
TTITLE14=The Big One
TTITLE15=Fly Me To the Moon (w-Frank Sinatra)
TTITLE16=Check Yes Or No
TTITLE17=I Know She Still Loves Me
EXTD=
EXTT0=
EXTT1=
EXTT2=
EXTT3=
EXTT4=
EXTT5=
EXTT6=
EXTT7=
EXTT8=
EXTT9=
EXTT10=
EXTT11=
EXTT12=
EXTT13=
EXTT14=
EXTT15=
EXTT16=
EXTT17=
PLAYORDER=
